<svg id="Layer_1" enable-background="new 0 0 464 464" height="512" viewBox="0 0 464 464" width="512" xmlns="http://www.w3.org/2000/svg"><g><g><path d="m464 128.19v195.05l-63.64 29.82-63.64-28.63v-195.04c40.363-.383 14.054-.135 127.28-1.2z" fill="#accdff"/><path d="m400.36 158.02v195.04l-63.64-28.63v-195.04l31.6-.3z" fill="#81b0fe"/><path d="m400.362 100.756 63.638 27.438-63.638 29.822-63.637-28.63z" fill="#6396ff"/><path d="m382.92 220.35v140.46l-63.64 29.83-63.64-28.63v-140.47c74.168-.697 45.72-.431 127.28-1.19z" fill="#f79fb2"/><path d="m319.28 221.54v169.1l-63.64-28.63v-140.47l61.73-.58z" fill="#fa8292"/><path d="m319.282 192.909 63.638 27.437-63.638 29.823-63.637-28.63z" fill="#ff6b7b"/><path d="m300.11 312.5v86.78l-63.63 29.83c-14.639-6.586-49.788-22.399-63.64-28.63v-86.79c34.657-.328 9.615-.094 127.27-1.19z" fill="#fae26b"/><path d="m236.48 342.32v86.79l-54.57-24.55-9.07-12.53v-78.34l26.38-.25z" fill="#edd15a"/><path d="m236.477 285.062 63.637 27.437-63.637 29.823-63.638-28.63z" fill="#eac736"/><path d="m217.31 380.5v53.68l-63.64 29.82-63.64-28.63v-53.68c14.282-.128-9.032.089 127.28-1.19z" fill="#b4ffc6"/><path d="m153.67 410.32v53.68l-63.64-28.63v-53.68l10.04-.09z" fill="#79e9b3"/><path d="m153.671 353.059 63.638 27.437-63.638 29.823-63.637-28.63z" fill="#14d2aa"/><g fill="#52528c"><path d="m382.92 37.44-95.92 123.99-89.81 36.84-71.53 102.14-88.18 35.82s-39.94 14.82-37.36-19.08l88.18-35.82 71.53-102.14 89.81-36.84 95.92-123.99z"/><path d="m313.253 25.77 64.507-24.963c6.513-2.521 14.162 1.165 14.162 6.825v52.242c0 5.781-7.949 9.458-14.477 6.697l-64.508-27.279c-6.967-2.946-6.784-10.774.316-13.522z"/></g></g><g fill="#404077"><path d="m287 161.43-89.81 36.84-37.36-19.08 89.81-36.84z"/><path d="m125.66 300.41-88.18 35.82s-39.94 14.82-37.36-19.08l88.18-35.82z"/></g></g></svg>