<svg width="215" height="118" viewBox="0 0 215 118" fill="none" xmlns="http://www.w3.org/2000/svg">
<path d="M33.6883 38.4314C33.8895 38.9949 34.0304 39.6388 34.1109 40.3633C34.2317 41.0475 34.292 41.7519 34.292 42.4764C34.292 43.2009 34.2317 43.9253 34.1109 44.6498C34.0304 45.3341 33.9097 45.9378 33.7487 46.461C33.1047 48.715 31.8167 50.6067 29.8848 52.1361C27.9528 53.6253 25.7391 54.712 23.2437 55.3963C20.7885 56.0805 18.2327 56.322 15.5763 56.1207C12.9601 55.9195 10.6257 55.2554 8.57301 54.1284C7.28504 53.4039 6.1782 52.5185 5.25248 51.472C4.32675 50.4255 3.5419 49.2583 2.89792 47.9704C2.65642 47.5276 2.49543 47.0245 2.41493 46.461C2.37468 45.8573 2.43506 45.2938 2.59605 44.7706C2.75705 44.2071 3.01866 43.7241 3.3809 43.3216C3.74314 42.8789 4.24625 42.577 4.89024 42.416C5.29273 42.3355 5.73546 42.2953 6.21845 42.2953C6.74168 42.2953 7.24479 42.3758 7.72778 42.5368C8.21077 42.6575 8.6535 42.8789 9.05599 43.2009C9.45848 43.4826 9.78047 43.8851 10.022 44.4083C10.4647 45.2536 11.0886 46.0384 11.8935 46.7629C12.7388 47.4471 13.6242 48.0106 14.55 48.4533C15.8782 48.8961 17.2064 49.0772 18.5346 48.9967C19.9031 48.9162 21.1307 48.6143 22.2174 48.0911C23.3443 47.5679 24.2499 46.8635 24.9342 45.978C25.6184 45.0523 25.9605 44.0058 25.9605 42.8386C25.9605 41.8727 25.8196 41.0878 25.5379 40.4841C25.2562 39.8401 24.8537 39.3168 24.3304 38.9144C23.8475 38.4716 23.2437 38.1094 22.5192 37.8276C21.835 37.5459 21.0703 37.3044 20.2251 37.1032C19.2591 36.9019 18.273 36.761 17.2668 36.6805C16.3008 36.6 15.3147 36.4994 14.3085 36.3787C13.3022 36.2579 12.3162 36.0969 11.3502 35.8957C10.3842 35.6944 9.43836 35.3926 8.51263 34.9901C6.66119 34.2254 5.25248 33.0581 4.2865 31.4884C3.32053 29.9187 2.73692 28.2283 2.53568 26.4171C2.37468 24.6059 2.59605 22.8148 3.19978 21.0439C3.80352 19.2327 4.76949 17.6831 6.0977 16.3951C7.38567 15.2279 8.91512 14.4028 10.6861 13.9198C12.4973 13.3966 14.4896 13.0947 16.663 13.0142C17.8705 12.974 19.078 13.0142 20.2854 13.135C21.5331 13.2557 22.7205 13.457 23.8474 13.7387C25.0147 14.0204 26.0813 14.3827 27.0472 14.8254C28.0535 15.2682 28.9188 15.7914 29.6433 16.3951C30.1665 16.7976 30.6898 17.341 31.213 18.0252C31.7362 18.6692 32.1387 19.3735 32.4205 20.1383C32.7022 20.8627 32.7827 21.5671 32.6619 22.2513C32.5815 22.9356 32.1588 23.5192 31.3941 24.0022C30.7501 24.4046 30.1263 24.5858 29.5225 24.5455C28.9591 24.465 28.4157 24.2839 27.8925 24.0022C27.3692 23.6802 26.8661 23.3179 26.3831 22.9154C25.9001 22.5129 25.4574 22.1507 25.0549 21.8287C23.9682 21.0237 22.6199 20.4804 21.0099 20.1986C19.4 19.9169 17.8906 19.8565 16.4819 20.0175C15.5964 20.1383 14.7713 20.3395 14.0066 20.6213C13.2419 20.903 12.5778 21.2854 12.0143 21.7683C11.491 22.2513 11.0684 22.8551 10.7464 23.5795C10.4647 24.2638 10.3641 25.0486 10.4446 25.9341C10.4848 26.5781 10.6659 27.1214 10.9879 27.5642C11.3502 28.0069 11.7728 28.3692 12.2558 28.6509C12.779 28.9326 13.3425 29.154 13.9462 29.315C14.55 29.476 15.1537 29.5967 15.7574 29.6772C17.5686 29.9187 19.3798 30.0999 21.191 30.2206C23.0022 30.3414 24.7732 30.7438 26.5039 31.4281C28.2748 32.1123 29.7842 33.038 31.0319 34.2052C32.2796 35.3725 33.1651 36.7812 33.6883 38.4314ZM46.2096 30.5828C47.4171 29.9791 48.6849 29.5565 50.0131 29.315C51.3414 29.0333 52.6494 28.9729 53.9374 29.1339C55.2656 29.2546 56.5335 29.5967 57.7409 30.1602C58.9484 30.6835 60.0754 31.4482 61.1218 32.4544C62.1683 33.5009 62.9733 34.648 63.5368 35.8957C64.1002 37.1434 64.5027 38.532 64.7442 40.0615C64.9052 41.1079 65.1668 42.0739 65.5291 42.9594C65.8913 43.8448 66.2737 44.7303 66.6762 45.6158C67.1189 46.5013 67.5214 47.3867 67.8836 48.2722C68.2861 49.1577 68.6081 50.0834 68.8496 51.0494C69.0508 51.9751 68.9703 52.8807 68.6081 53.7662C68.2861 54.6114 67.6019 55.1346 66.5554 55.3359C65.9517 55.4566 65.3681 55.4164 64.8046 55.2151C64.2814 54.9737 63.7984 54.6517 63.3556 54.2492C62.9129 53.8064 62.5104 53.3436 62.1482 52.8606C61.8262 52.3374 61.5243 51.8544 61.2426 51.4116C60.3168 52.6191 59.3106 53.5649 58.2239 54.2492C57.1372 54.8932 55.8291 55.3158 54.2996 55.517C53.0117 55.678 51.7841 55.7183 50.6169 55.6378C49.4497 55.5573 48.2019 55.3359 46.8737 54.9737C45.143 54.5309 43.7142 53.7662 42.5872 52.6795C41.5005 51.5525 40.6553 50.2645 40.0515 48.8156C39.4881 47.3264 39.1862 45.7365 39.1459 44.0461C39.1057 42.3556 39.3069 40.6853 39.7497 39.0351C40.3132 36.8617 41.1584 35.0907 42.2854 33.7223C43.4123 32.3538 44.7204 31.3073 46.2096 30.5828ZM47.719 37.6465C47.1555 38.21 46.7127 38.8741 46.3907 39.6388C46.0687 40.4036 45.8675 41.2085 45.787 42.0538C45.7468 42.899 45.8273 43.7442 46.0285 44.5894C46.2297 45.4347 46.5517 46.1793 46.9945 46.8233C47.397 47.3867 48.0812 47.8697 49.0472 48.2722C50.0131 48.6345 51.0194 48.8558 52.0658 48.9363C53.2733 49.0168 54.3198 48.6948 55.2052 47.9704C56.131 47.2459 56.8152 46.3403 57.2579 45.2536C57.7409 44.1266 57.9623 42.9392 57.922 41.6915C57.8818 40.4036 57.5397 39.2363 56.8957 38.1899C56.4127 37.4252 55.7687 36.8617 54.9637 36.4994C54.199 36.1372 53.3739 35.9561 52.4884 35.9561C51.603 35.9158 50.7175 36.0567 49.832 36.3787C48.9868 36.6604 48.2824 37.083 47.719 37.6465ZM81.902 51.1701C81.8618 51.3714 81.8215 51.5726 81.7813 51.7739C81.7813 51.9349 81.7813 52.116 81.7813 52.3172L81.419 53.5851C81.3385 53.7461 81.2782 53.8467 81.2379 53.8869L81.0568 54.2492C80.8556 54.6919 80.4933 55.0542 79.9701 55.3359C79.0041 55.8189 77.9778 55.9396 76.891 55.6981C76.2068 55.6176 75.6634 55.4164 75.261 55.0944C74.8585 54.8127 74.5767 54.4705 74.4157 54.0681C74.2547 53.6656 74.134 53.2631 74.0535 52.8606C73.9327 52.4581 73.8724 52.0959 73.8724 51.7739V17.9648C73.8724 17.6831 73.8724 17.4416 73.8724 17.2403C73.9126 16.9989 73.9529 16.7775 73.9931 16.5762C74.0334 16.2945 74.0736 16.053 74.1139 15.8518C74.1944 15.6505 74.2749 15.4291 74.3554 15.1877C74.4761 14.7852 74.6975 14.4632 75.0195 14.2217C75.5025 13.8594 75.9653 13.6582 76.4081 13.618C76.6898 13.5375 76.9514 13.4972 77.1929 13.4972C77.4344 13.457 77.7161 13.4368 78.0381 13.4368C78.6016 13.4368 79.2456 13.5978 79.9701 13.9198C80.5336 14.2418 80.936 14.6845 81.1775 15.248C81.58 16.053 81.7813 16.7976 81.7813 17.4818C81.8215 17.8843 81.8416 18.4881 81.8416 19.293C81.8819 20.098 81.902 20.7018 81.902 21.1042V21.3457C81.9825 22.6337 82.0228 23.8814 82.0228 25.0889C82.0228 26.2561 82.0026 27.5441 81.9624 28.9528C81.9624 30.3212 81.9423 31.6494 81.902 32.9374C81.902 34.1851 81.902 35.4328 81.902 36.6805V49.3589C81.902 49.5199 81.902 49.6809 81.902 49.8419C81.9423 49.9627 81.9624 50.1035 81.9624 50.2645C81.9624 50.667 81.9423 50.9689 81.902 51.1701ZM107.732 47.7289C108.215 47.6081 108.698 47.5276 109.181 47.4874C109.705 47.4471 110.167 47.5075 110.57 47.6685C111.013 47.8295 111.375 48.1112 111.657 48.5137C111.938 48.876 112.079 49.3992 112.079 50.0834C112.079 50.5664 111.958 51.0293 111.717 51.472C111.476 51.9147 111.174 52.3172 110.811 52.6795C110.449 53.0417 110.047 53.3637 109.604 53.6454C109.161 53.8869 108.739 54.0882 108.336 54.2492C107.169 54.7724 105.821 55.1749 104.291 55.4566C102.802 55.7384 101.252 55.839 99.6423 55.7585C97.4689 55.678 95.376 55.2554 93.3635 54.4907C91.3913 53.6857 89.8417 52.3776 88.7148 50.5664C87.6683 48.7955 87.0444 46.8233 86.8432 44.6498C86.642 42.4764 86.7426 40.4237 87.1451 38.4917C87.5878 36.1573 88.3324 34.2656 89.3789 32.8167C90.4656 31.3274 91.7536 30.1401 93.2428 29.2546C95.054 28.2082 97.0865 27.6648 99.3405 27.6246C101.594 27.5843 103.748 28.027 105.8 28.9528C107.169 29.5565 108.396 30.3816 109.483 31.4281C110.57 32.4343 111.395 33.6619 111.958 35.1108C112.119 35.4731 112.24 35.9158 112.321 36.4391C112.441 36.9623 112.522 37.5258 112.562 38.1295C112.602 38.693 112.602 39.2565 112.562 39.82C112.522 40.3834 112.421 40.8866 112.26 41.3293C112.019 42.0538 111.717 42.6173 111.355 43.0197C110.993 43.4222 110.53 43.7241 109.966 43.9253C109.403 44.1266 108.718 44.2675 107.913 44.348C107.149 44.3882 106.223 44.4285 105.136 44.4687C104.17 44.509 103.265 44.5291 102.42 44.5291C101.574 44.5291 100.709 44.5291 99.8235 44.5291C98.938 44.4888 98.0123 44.4687 97.0463 44.4687C96.1206 44.4285 95.0741 44.3882 93.9069 44.348C93.7861 45.1529 93.8868 45.8573 94.2087 46.461C94.571 47.0245 95.054 47.5075 95.6577 47.91C96.2614 48.2722 96.9457 48.554 97.7104 48.7552C98.4751 48.9564 99.2197 49.0772 99.9442 49.1174C101.313 49.1979 102.621 49.0973 103.868 48.8156C105.116 48.4936 106.404 48.1313 107.732 47.7289ZM105.136 36.0164C104.372 35.131 103.567 34.487 102.721 34.0845C102.077 33.8028 101.393 33.682 100.669 33.7223C99.9845 33.7223 99.3203 33.8229 98.6764 34.0241C97.5091 34.3059 96.5231 34.9096 95.7181 35.8353C95.6376 35.9158 95.4967 36.1171 95.2955 36.4391C95.0942 36.7208 94.893 37.0227 94.6917 37.3447C94.5307 37.6666 94.41 37.9685 94.3295 38.2503C94.249 38.532 94.2892 38.6729 94.4502 38.6729H106.283C106.243 38.1094 106.143 37.6465 105.982 37.2843C105.821 36.8818 105.539 36.4592 105.136 36.0164ZM131.872 45.3743C131.107 44.8913 130.242 44.509 129.276 44.2272C128.35 43.9455 127.384 43.6838 126.378 43.4424C125.412 43.2009 124.466 42.9392 123.54 42.6575C122.615 42.3355 121.769 41.8928 121.005 41.3293C119.354 40.0816 118.388 38.5521 118.107 36.7409C117.865 34.8895 118.268 33.038 119.314 31.1866C119.878 30.2206 120.622 29.4358 121.548 28.832C122.474 28.188 123.48 27.7051 124.567 27.3831C125.694 27.0208 126.841 26.8196 128.008 26.7793C129.175 26.7391 130.282 26.7995 131.328 26.9604C132.013 27.0812 132.737 27.2623 133.502 27.5038C134.267 27.7051 134.971 27.9868 135.615 28.349C136.299 28.7113 136.903 29.1741 137.426 29.7376C137.99 30.2609 138.392 30.925 138.634 31.7299C138.795 32.2532 138.815 32.7563 138.694 33.2393C138.613 33.7223 138.412 34.1247 138.09 34.4467C137.808 34.7687 137.426 35.0102 136.943 35.1712C136.5 35.3322 136.017 35.3725 135.494 35.292C134.89 35.1712 134.327 34.9901 133.804 34.7486C133.28 34.5071 132.757 34.2455 132.234 33.9637C131.711 33.682 131.167 33.4405 130.604 33.2393C130.081 33.038 129.517 32.9374 128.913 32.9374C127.988 32.8972 127.223 33.0581 126.619 33.4204C126.016 33.7826 125.593 34.2254 125.351 34.7486C125.15 35.2718 125.17 35.8353 125.412 36.4391C125.694 37.0428 126.257 37.566 127.102 38.0088C127.867 38.4112 128.712 38.7332 129.638 38.9747C130.564 39.2162 131.469 39.4577 132.355 39.6992C133.28 39.9407 134.166 40.2224 135.011 40.5444C135.897 40.8664 136.682 41.3092 137.366 41.8727C138.694 42.9594 139.499 44.2272 139.781 45.6762C140.103 47.1251 140.022 48.554 139.539 49.9627C139.056 51.3714 138.211 52.6191 137.003 53.7058C135.836 54.7925 134.448 55.517 132.838 55.8793C131.671 56.1207 130.403 56.2415 129.034 56.2415C127.706 56.2415 126.378 56.1006 125.05 55.8189C123.762 55.5371 122.514 55.0944 121.306 54.4907C120.139 53.8869 119.153 53.1222 118.348 52.1965C117.785 51.5525 117.483 50.828 117.443 50.023C117.443 49.1778 117.604 48.4533 117.926 47.8496C118.288 47.2056 118.791 46.7629 119.435 46.5214C120.079 46.2799 120.803 46.4208 121.608 46.944C122.252 47.3867 123.017 47.8295 123.902 48.2722C124.788 48.6747 125.673 48.9967 126.559 49.2382C127.444 49.4797 128.29 49.6004 129.095 49.6004C129.94 49.6004 130.664 49.4193 131.268 49.0571C132.154 48.4936 132.616 47.8496 132.657 47.1251C132.697 46.3604 132.435 45.7768 131.872 45.3743Z" fill="url(#paint0_linear_102_79)"/>
<path d="M110.767 74.1208C110.767 74.73 110.796 75.361 110.854 76.0138C110.912 76.6665 110.977 77.3193 111.05 77.972C111.137 78.6248 111.209 79.2848 111.267 79.952C111.325 80.6048 111.354 81.2503 111.354 81.8885C111.354 82.5993 111.108 83.1795 110.615 83.6292C110.121 84.0644 109.461 84.282 108.635 84.282C108.228 84.282 107.844 84.1587 107.481 83.9121C107.133 83.6655 106.937 83.2738 106.894 82.7371C106.821 82.0554 106.749 81.2938 106.676 80.4525C106.618 79.5967 106.56 78.7191 106.502 77.8197C106.459 76.9059 106.415 75.992 106.372 75.0782C106.328 74.1498 106.292 73.265 106.263 72.4236C106.234 71.5678 106.212 70.7845 106.198 70.0737C106.183 69.3484 106.176 68.7392 106.176 68.246C106.176 67.8109 106.205 67.3974 106.263 67.0058C106.321 66.6141 106.444 66.2733 106.633 65.9831C106.821 65.693 107.075 65.4609 107.394 65.2869C107.728 65.1128 108.17 65.0258 108.722 65.0258C109.142 65.0258 109.614 65.1781 110.136 65.4827C110.658 65.7728 111.217 66.1717 111.811 66.6794C112.421 67.1871 113.066 67.7746 113.748 68.4418C114.43 69.0946 115.133 69.7836 115.858 70.5089C116.584 71.2342 117.323 71.974 118.078 72.7283C118.846 73.468 119.623 74.1716 120.406 74.8388C120.754 75.1434 121.146 75.4988 121.581 75.905C122.03 76.3111 122.487 76.6955 122.952 77.0582C123.43 77.4208 123.902 77.7327 124.366 77.9938C124.845 78.2404 125.301 78.3637 125.737 78.3637C126.143 78.3637 126.404 78.1896 126.52 77.8415C126.651 77.4788 126.716 76.9059 126.716 76.1226C126.716 75.5423 126.665 74.8243 126.563 73.9685C126.476 73.1127 126.346 72.1988 126.172 71.2269C125.998 70.255 125.78 69.2832 125.519 68.3113C125.258 67.3249 124.961 66.4256 124.627 65.6133C124.554 65.4392 124.482 65.2724 124.409 65.1128C124.351 64.9387 124.322 64.7502 124.322 64.5471C124.322 64.2135 124.431 63.9161 124.649 63.655C124.866 63.3939 125.127 63.1763 125.432 63.0022C125.737 62.8282 126.056 62.6976 126.389 62.6106C126.723 62.509 126.999 62.4583 127.216 62.4583C127.695 62.4583 128.123 62.7194 128.5 63.2416C128.877 63.7493 129.203 64.4165 129.479 65.2434C129.769 66.0557 130.009 66.9768 130.197 68.0067C130.386 69.0221 130.538 70.0447 130.654 71.0746C130.785 72.1045 130.872 73.0909 130.915 74.0338C130.973 74.9621 131.002 75.7382 131.002 76.3619C131.002 77.5369 130.951 78.574 130.85 79.4734C130.763 80.3582 130.567 81.1052 130.262 81.7145C129.972 82.3237 129.544 82.7879 128.979 83.107C128.413 83.4116 127.659 83.5639 126.716 83.5639C125.961 83.5639 125.171 83.4116 124.344 83.107C123.517 82.7879 122.676 82.3672 121.82 81.845C120.979 81.3083 120.123 80.6991 119.253 80.0173C118.397 79.3356 117.555 78.6248 116.729 77.885C115.902 77.1452 115.097 76.4054 114.313 75.6656C113.545 74.9259 112.827 74.2368 112.159 73.5986C111.884 73.323 111.63 73.1852 111.398 73.1852C111.195 73.1852 111.035 73.2722 110.919 73.4463C110.818 73.6058 110.767 73.8307 110.767 74.1208ZM135.202 77.7762C135.202 77.5296 135.231 77.254 135.289 76.9494C135.347 76.6448 135.376 76.3111 135.376 75.9485C135.376 75.7019 135.267 75.5133 135.049 75.3828C134.846 75.2522 134.614 75.1072 134.353 74.9476C134.092 74.788 133.853 74.585 133.635 74.3384C133.432 74.0918 133.33 73.7364 133.33 73.2722C133.33 72.9386 133.417 72.605 133.591 72.2713C133.78 71.9377 134.048 71.6331 134.397 71.3575C135.252 70.7192 136.137 70.1463 137.051 69.6386C137.979 69.1309 138.901 68.7029 139.814 68.3548C140.743 68.0067 141.657 67.7383 142.556 67.5497C143.455 67.3612 144.318 67.2669 145.145 67.2669C146.538 67.2669 147.843 67.528 149.062 68.0502C150.295 68.5579 151.361 69.2614 152.26 70.1608C153.174 71.0456 153.892 72.09 154.414 73.294C154.951 74.4834 155.219 75.7599 155.219 77.1235C155.219 78.458 154.936 79.7272 154.371 80.9312C153.82 82.1206 153.072 83.165 152.13 84.0644C151.187 84.9637 150.077 85.6745 148.801 86.1967C147.539 86.7334 146.204 87.0018 144.797 87.0018C143.419 87.0018 142.143 86.7697 140.968 86.3055C139.793 85.8413 138.777 85.2031 137.921 84.3908C137.066 83.5639 136.398 82.5921 135.92 81.4751C135.441 80.3437 135.202 79.1107 135.202 77.7762ZM145.276 83.0853C145.885 83.0853 146.516 82.962 147.169 82.7154C147.821 82.4688 148.416 82.1134 148.953 81.6492C149.504 81.1705 149.954 80.5903 150.302 79.9085C150.665 79.2268 150.846 78.458 150.846 77.6021C150.846 76.7318 150.686 75.9195 150.367 75.1652C150.048 74.4109 149.606 73.7582 149.04 73.2069C148.489 72.6412 147.829 72.1988 147.06 71.8797C146.306 71.5606 145.486 71.401 144.601 71.401C142.991 71.401 141.758 71.8217 140.902 72.663C140.046 73.4898 139.619 74.7663 139.619 76.4925C139.619 77.4353 139.756 78.3129 140.032 79.1252C140.322 79.923 140.721 80.6193 141.229 81.214C141.736 81.7943 142.331 82.2512 143.013 82.5848C143.709 82.9184 144.463 83.0853 145.276 83.0853ZM160.093 59.869C160.093 59.1002 160.311 58.5635 160.746 58.2589C161.181 57.9398 161.899 57.7802 162.9 57.7802C163.263 57.7802 163.567 57.8165 163.814 57.889C164.075 57.947 164.293 58.0631 164.467 58.2371C164.655 58.4112 164.8 58.6433 164.902 58.9334C165.018 59.209 165.112 59.5644 165.185 59.9996C165.359 61.3486 165.547 62.7411 165.75 64.1772C165.968 65.6133 166.193 67.0566 166.425 68.5071C166.512 69.1599 166.853 69.4862 167.448 69.4862C167.607 69.4862 167.868 69.4717 168.231 69.4427C168.608 69.3992 169.05 69.3557 169.558 69.3122C170.066 69.2542 170.61 69.1961 171.19 69.1381C171.785 69.0801 172.372 69.0293 172.952 68.9858C173.547 68.9278 174.106 68.8843 174.628 68.8553C175.165 68.8117 175.636 68.79 176.042 68.79C176.361 68.79 176.615 68.8553 176.804 68.9858C176.992 69.1019 177.137 69.2614 177.239 69.4645C177.355 69.6531 177.427 69.8706 177.456 70.1172C177.5 70.3493 177.522 70.5887 177.522 70.8353C177.522 71.0529 177.478 71.2777 177.391 71.5098C177.319 71.7419 177.21 71.9522 177.065 72.1408C176.934 72.3148 176.767 72.4599 176.564 72.5759C176.361 72.692 176.129 72.75 175.868 72.75C174.606 72.75 173.33 72.7935 172.039 72.8806C170.762 72.9531 169.486 73.0546 168.209 73.1852C167.556 73.2722 167.23 73.5986 167.23 74.1643C167.23 74.2078 167.237 74.2658 167.252 74.3384C167.266 74.3964 167.273 74.4472 167.273 74.4907C167.448 75.7527 167.607 76.9349 167.752 78.0373C167.912 79.1397 168.042 80.1261 168.144 80.9965C168.26 81.8523 168.347 82.5703 168.405 83.1505C168.477 83.7163 168.514 84.0934 168.514 84.282C168.514 84.8042 168.463 85.2393 168.361 85.5875C168.26 85.9501 168.093 86.2402 167.861 86.4578C167.629 86.6899 167.317 86.8495 166.925 86.9365C166.548 87.038 166.07 87.0888 165.489 87.0888C164.938 87.0888 164.532 86.9583 164.271 86.6972C164.01 86.4361 163.865 86.0372 163.836 85.5004C163.749 83.7888 163.611 82.0699 163.422 80.3437C163.234 78.603 163.016 76.8696 162.769 75.1434C162.639 74.5197 162.313 74.2078 161.79 74.2078C161.747 74.2078 161.696 74.2151 161.638 74.2296C161.58 74.2441 161.529 74.2513 161.486 74.2513C160.586 74.4544 159.738 74.6575 158.94 74.8606C158.142 75.0637 157.395 75.2812 156.699 75.5133C156.307 75.6439 155.959 75.7382 155.654 75.7962C155.35 75.8397 155.074 75.8615 154.828 75.8615C154.494 75.8615 154.247 75.7164 154.088 75.4263C153.928 75.1217 153.849 74.7445 153.849 74.2949C153.849 74.1353 153.863 73.954 153.892 73.7509C153.921 73.5333 153.979 73.323 154.066 73.1199C154.139 72.9023 154.255 72.7065 154.414 72.5324C154.559 72.3439 154.762 72.1915 155.023 72.0755C155.633 71.8289 156.445 71.5751 157.46 71.314C158.476 71.0383 159.622 70.7845 160.898 70.5524C161.188 70.4799 161.413 70.3638 161.573 70.2043C161.747 70.0302 161.834 69.7764 161.834 69.4427C161.834 69.3702 161.834 69.2977 161.834 69.2251C161.834 69.1381 161.819 69.0511 161.79 68.964C161.558 67.6295 161.333 66.4183 161.116 65.3304C160.913 64.228 160.731 63.2851 160.572 62.5018C160.427 61.7185 160.311 61.102 160.224 60.6523C160.137 60.2027 160.093 59.9416 160.093 59.869ZM194.776 80.2349C195.197 79.8723 195.61 79.6909 196.016 79.6909C196.248 79.6909 196.459 79.749 196.647 79.865C196.836 79.9811 197.046 80.1624 197.278 80.409C197.496 80.7426 197.648 81.0182 197.735 81.2358C197.837 81.4389 197.888 81.642 197.888 81.845C197.888 82.2802 197.67 82.6936 197.235 83.0853C196.539 83.6655 195.784 84.1877 194.972 84.6519C194.16 85.1015 193.311 85.4859 192.426 85.8051C191.541 86.1242 190.628 86.3635 189.685 86.5231C188.742 86.6972 187.806 86.7842 186.878 86.7842C185.703 86.7842 184.6 86.6319 183.571 86.3273C182.541 86.0372 181.62 85.6165 180.807 85.0653C180.009 84.5141 179.335 83.8541 178.784 83.0853C178.232 82.302 177.841 81.4244 177.609 80.4525C177.478 80.0463 177.355 79.7852 177.239 79.6692C177.137 79.5386 176.963 79.4734 176.717 79.4734C176.18 79.4734 175.767 79.3428 175.476 79.0817C175.186 78.8206 175.041 78.4435 175.041 77.9503C175.041 77.7472 175.056 77.6166 175.085 77.5586L175.128 77.1235C175.201 76.6013 175.339 76.2241 175.542 75.992C175.759 75.7599 176.093 75.6439 176.543 75.6439H176.869C177.478 75.6439 177.906 75.361 178.153 74.7953C178.602 73.7944 179.175 72.8806 179.872 72.0537C180.568 71.2269 181.351 70.5234 182.222 69.9432C183.092 69.3484 184.02 68.8915 185.007 68.5724C186.007 68.2388 187.023 68.072 188.053 68.072C189.126 68.072 190.127 68.2315 191.055 68.5506C191.998 68.8553 192.818 69.2832 193.514 69.8344C194.21 70.3856 194.754 71.0311 195.146 71.7709C195.552 72.5107 195.755 73.3085 195.755 74.1643C195.755 74.759 195.639 75.303 195.407 75.7962C195.175 76.2894 194.841 76.7245 194.406 77.1017C193.971 77.4643 193.442 77.7617 192.818 77.9938C192.209 78.2259 191.512 78.3782 190.729 78.4507L183.179 79.2123C182.889 79.2123 182.649 79.2848 182.461 79.4298C182.287 79.5749 182.2 79.7707 182.2 80.0173C182.2 80.3945 182.338 80.7571 182.613 81.1052C182.903 81.4534 183.28 81.7652 183.745 82.0409C184.223 82.302 184.767 82.5123 185.376 82.6718C186 82.8314 186.638 82.9112 187.291 82.9112C187.915 82.9112 188.553 82.8532 189.206 82.7371C189.873 82.6066 190.526 82.4253 191.164 82.1932C191.817 81.9611 192.448 81.6855 193.057 81.3663C193.666 81.0327 194.239 80.6556 194.776 80.2349ZM189.924 74.6212C190.142 74.5777 190.33 74.4762 190.49 74.3166C190.649 74.1426 190.729 73.9322 190.729 73.6856C190.729 73.468 190.649 73.265 190.49 73.0764C190.33 72.8878 190.113 72.721 189.837 72.5759C189.561 72.4164 189.242 72.2931 188.88 72.2061C188.517 72.119 188.133 72.0755 187.726 72.0755C187.132 72.0755 186.522 72.1625 185.899 72.3366C185.275 72.5107 184.709 72.7428 184.202 73.0329C183.694 73.3085 183.28 73.6203 182.961 73.9685C182.642 74.3021 182.483 74.6357 182.483 74.9694C182.483 75.303 182.686 75.4698 183.092 75.4698C183.338 75.4698 183.737 75.4408 184.289 75.3828C184.84 75.3248 185.449 75.2595 186.116 75.187C186.784 75.0999 187.458 75.0056 188.14 74.9041C188.822 74.8026 189.416 74.7083 189.924 74.6212ZM204.698 66.1137C205.67 66.1137 206.671 66.2442 207.701 66.5053C208.731 66.7519 209.673 67.0783 210.529 67.4845C211.385 67.8761 212.089 68.3185 212.64 68.8117C213.191 69.3049 213.467 69.7836 213.467 70.2478C213.467 70.4799 213.365 70.741 213.162 71.0311C212.959 71.3067 212.712 71.5751 212.422 71.8362C212.132 72.0828 211.813 72.2931 211.465 72.4672C211.131 72.6267 210.834 72.7065 210.573 72.7065C210.225 72.7065 209.833 72.5614 209.398 72.2713C208.977 71.9812 208.506 71.6621 207.983 71.314C207.476 70.9513 206.917 70.6249 206.308 70.3348C205.699 70.0447 205.039 69.8997 204.328 69.8997C203.864 69.8997 203.479 70.0157 203.175 70.2478C202.885 70.4654 202.74 70.7772 202.74 71.1834C202.74 71.546 202.914 71.9159 203.262 72.2931C203.61 72.6557 204.067 73.0329 204.633 73.4245C205.213 73.8162 205.866 74.2296 206.591 74.6648C207.316 75.0999 208.056 75.5641 208.81 76.0573C209.579 76.5505 210.326 77.0872 211.051 77.6674C211.777 78.2476 212.422 78.8786 212.988 79.5604C213.568 80.2422 214.032 80.9892 214.38 81.8015C214.729 82.5993 214.903 83.4697 214.903 84.4125C214.903 85.2248 214.758 85.9646 214.467 86.6319C214.177 87.2991 213.764 87.8721 213.227 88.3508C212.691 88.8295 212.052 89.1994 211.313 89.4605C210.573 89.7216 209.76 89.8521 208.876 89.8521C207.759 89.8521 206.729 89.6781 205.786 89.3299C204.843 88.9963 204.031 88.5321 203.349 87.9374C202.667 87.3427 202.13 86.6319 201.739 85.8051C201.362 84.9782 201.173 84.0716 201.173 83.0853C201.173 81.8088 201.398 80.8804 201.848 80.3002C202.312 79.72 203.037 79.4298 204.023 79.4298C204.633 79.4298 205.119 79.5459 205.481 79.778C205.844 80.0101 206.025 80.2929 206.025 80.6266C206.025 80.8006 205.996 80.9819 205.938 81.1705C205.88 81.3446 205.815 81.5332 205.742 81.7362C205.684 81.9248 205.626 82.1279 205.568 82.3455C205.525 82.5631 205.503 82.7806 205.503 82.9982C205.503 83.3754 205.59 83.738 205.764 84.0861C205.938 84.4343 206.17 84.7389 206.46 85C206.765 85.2756 207.113 85.4932 207.505 85.6528C207.896 85.8123 208.31 85.8921 208.745 85.8921C209.905 85.8921 210.486 85.4134 210.486 84.456C210.486 83.7017 210.188 82.991 209.594 82.3237C208.999 81.642 208.252 80.9819 207.352 80.3437C206.453 79.6909 205.481 79.0382 204.437 78.3854C203.407 77.7327 202.442 77.0509 201.543 76.3402C200.644 75.6294 199.897 74.8751 199.302 74.0773C198.707 73.265 198.41 72.3874 198.41 71.4445C198.41 70.6612 198.569 69.9432 198.888 69.2904C199.222 68.6377 199.672 68.0792 200.237 67.615C200.803 67.1363 201.463 66.7664 202.217 66.5053C202.986 66.2442 203.813 66.1137 204.698 66.1137Z" fill="#B6158A"/>
<defs>
<linearGradient id="paint0_linear_102_79" x1="85" y1="0" x2="85" y2="118" gradientUnits="userSpaceOnUse">
<stop stop-color="#200177"/>
<stop offset="1" stop-color="#010031"/>
</linearGradient>
</defs>
</svg>
