<svg width="360" height="19" viewBox="0 0 360 19" fill="none" xmlns="http://www.w3.org/2000/svg">
<path d="M159.187 15.21C158.179 15.21 157.32 14.9907 156.611 14.552C155.902 14.1087 155.358 13.4927 154.98 12.704C154.607 11.9153 154.42 11.0007 154.42 9.96C154.42 8.91933 154.607 8.00467 154.98 7.216C155.358 6.42733 155.902 5.81367 156.611 5.375C157.32 4.93167 158.179 4.71 159.187 4.71C160.19 4.71 161.047 4.93167 161.756 5.375C162.47 5.81367 163.014 6.42733 163.387 7.216C163.76 8.00467 163.947 8.91933 163.947 9.96C163.947 11.0007 163.76 11.9153 163.387 12.704C163.014 13.4927 162.47 14.1087 161.756 14.552C161.047 14.9907 160.19 15.21 159.187 15.21ZM159.187 13.817C159.901 13.8263 160.494 13.67 160.965 13.348C161.441 13.0213 161.798 12.5687 162.036 11.99C162.274 11.4067 162.393 10.73 162.393 9.96C162.393 9.19 162.274 8.518 162.036 7.944C161.798 7.36533 161.441 6.915 160.965 6.593C160.494 6.271 159.901 6.10767 159.187 6.103C158.473 6.09367 157.878 6.25 157.402 6.572C156.931 6.894 156.576 7.34667 156.338 7.93C156.1 8.51333 155.979 9.19 155.974 9.96C155.969 10.73 156.086 11.4043 156.324 11.983C156.562 12.557 156.919 13.005 157.395 13.327C157.876 13.649 158.473 13.8123 159.187 13.817ZM165.343 15V7.44H166.645V9.274L166.463 9.036C166.557 8.79333 166.678 8.57167 166.827 8.371C166.977 8.16567 167.149 7.99767 167.345 7.867C167.537 7.727 167.749 7.61967 167.982 7.545C168.22 7.46567 168.463 7.419 168.71 7.405C168.958 7.38633 169.196 7.398 169.424 7.44V8.812C169.177 8.74667 168.902 8.728 168.598 8.756C168.3 8.784 168.024 8.87967 167.772 9.043C167.534 9.197 167.345 9.38367 167.205 9.603C167.07 9.82233 166.972 10.0673 166.911 10.338C166.851 10.604 166.82 10.8863 166.82 11.185V15H165.343ZM175.695 15L172.769 4.92H174.302L176.423 12.543L178.544 4.927L180.084 4.92L182.205 12.543L184.326 4.92H185.866L182.933 15H181.477L179.314 7.461L177.151 15H175.695ZM186.907 6.201V4.78H188.37V6.201H186.907ZM186.907 15V7.44H188.37V15H186.907ZM194.798 15C194.322 15.0933 193.856 15.133 193.398 15.119C192.941 15.105 192.533 15.0163 192.173 14.853C191.814 14.6897 191.543 14.433 191.361 14.083C191.198 13.7703 191.109 13.453 191.095 13.131C191.086 12.8043 191.081 12.4357 191.081 12.025V5.34H192.551V11.955C192.551 12.2583 192.554 12.522 192.558 12.746C192.568 12.97 192.617 13.159 192.705 13.313C192.873 13.6023 193.139 13.768 193.503 13.81C193.872 13.8473 194.304 13.831 194.798 13.761V15ZM189.632 8.616V7.44H194.798V8.616H189.632ZM201.698 15V11.283C201.698 10.989 201.672 10.688 201.621 10.38C201.574 10.0673 201.481 9.778 201.341 9.512C201.206 9.246 201.012 9.03133 200.76 8.868C200.513 8.70467 200.188 8.623 199.787 8.623C199.526 8.623 199.278 8.66733 199.045 8.756C198.812 8.84 198.606 8.97767 198.429 9.169C198.256 9.36033 198.119 9.61233 198.016 9.925C197.918 10.2377 197.869 10.618 197.869 11.066L196.959 10.723C196.959 10.037 197.087 9.43267 197.344 8.91C197.601 8.38267 197.969 7.972 198.45 7.678C198.931 7.384 199.512 7.237 200.193 7.237C200.716 7.237 201.154 7.321 201.509 7.489C201.864 7.657 202.151 7.87867 202.37 8.154C202.594 8.42467 202.764 8.721 202.881 9.043C202.998 9.365 203.077 9.68 203.119 9.988C203.161 10.296 203.182 10.5667 203.182 10.8V15H201.698ZM196.385 15V4.92H197.694V10.359H197.869V15H196.385Z" fill="#242A31"/>
<line y1="9.75" x2="135.004" y2="9.75" stroke="black" stroke-width="0.5"/>
<line x1="223.998" y1="9.75" x2="359.002" y2="9.75" stroke="black" stroke-width="0.5"/>
</svg>
